<svg aria-hidden="true" style="position: absolute; width: 0; height: 0; overflow: hidden;" version="1.1" xmlns="http://www.w3.org/2000/svg" xmlns:xlink="http://www.w3.org/1999/xlink">
<defs>
<symbol id="icon-question-circle" viewBox="0 0 32 32">
<path d="M31.5 16c0 8.562-6.94 15.5-15.5 15.5s-15.5-6.938-15.5-15.5c0-8.557 6.94-15.5 15.5-15.5s15.5 6.943 15.5 15.5zM16.416 5.625c-3.406 0-5.578 1.435-7.284 3.985-0.221 0.33-0.147 0.776 0.17 1.016l2.169 1.644c0.325 0.247 0.789 0.188 1.042-0.133 1.117-1.416 1.882-2.237 3.581-2.237 1.277 0 2.856 0.822 2.856 2.060 0 0.936-0.773 1.417-2.033 2.123-1.47 0.824-3.416 1.85-3.416 4.416v0.25c0 0.414 0.336 0.75 0.75 0.75h3.5c0.414 0 0.75-0.336 0.75-0.75v-0.083c0-1.779 5.199-1.853 5.199-6.667 0-3.625-3.76-6.375-7.283-6.375zM16 21.125c-1.585 0-2.875 1.29-2.875 2.875s1.29 2.875 2.875 2.875 2.875-1.29 2.875-2.875c0-1.585-1.29-2.875-2.875-2.875z"></path>
</symbol>
<symbol id="icon-bezier-curve" viewBox="0 0 40 32">
<path d="M23 2h-6c-1.104 0-2 0.896-2 2v6c0 1.104 0.896 2 2 2h6c1.104 0 2-0.896 2-2v-6c0-1.104-0.896-2-2-2zM13 5.5h-5.297c-0.594-1.465-2.026-2.5-3.703-2.5-2.209 0-4 1.791-4 4s1.791 4 4 4c1.678 0 3.109-1.035 3.703-2.5h4.983c-3.461 2.033-5.991 5.457-6.846 9.5h3.087c0.706-2.601 2.298-4.826 4.44-6.348-0.231-0.505-0.367-1.062-0.367-1.652v-4.5zM10 20h-6c-1.104 0-2 0.896-2 2v6c0 1.104 0.896 2 2 2h6c1.104 0 2-0.896 2-2v-6c0-1.104-0.896-2-2-2zM36 3c-1.678 0-3.109 1.035-3.703 2.5h-5.297v4.5c0 0.591-0.137 1.148-0.367 1.652 2.142 1.522 3.734 3.747 4.44 6.348h3.088c-0.855-4.043-3.386-7.468-6.846-9.5h4.983c0.594 1.465 2.026 2.5 3.703 2.5 2.209 0 4-1.791 4-4s-1.791-4-4-4zM36 20h-6c-1.104 0-2 0.896-2 2v6c0 1.104 0.896 2 2 2h6c1.104 0 2-0.896 2-2v-6c0-1.104-0.896-2-2-2z"></path>
</symbol>
<symbol id="icon-caret-right" viewBox="0 0 12 32">
<path d="M0 24.041v-16.083c0-1.114 1.346-1.671 2.134-0.884l8.041 8.041c0.488 0.488 0.488 1.28 0 1.768l-8.041 8.041c-0.787 0.788-2.134 0.23-2.134-0.884z"></path>
</symbol>
<symbol id="icon-chevron-left" viewBox="0 0 20 32">
<path d="M2.158 14.939l12.147-12.146c0.586-0.586 1.536-0.586 2.121 0l1.417 1.417c0.585 0.585 0.586 1.532 0.003 2.119l-9.627 9.671 9.626 9.672c0.584 0.586 0.582 1.534-0.003 2.119l-1.417 1.417c-0.586 0.586-1.536 0.586-2.121 0l-12.146-12.147c-0.586-0.586-0.586-1.536 0-2.121z"></path>
</symbol>
<symbol id="icon-info-circle" viewBox="0 0 32 32">
<path d="M16 0.5c-8.56 0-15.5 6.943-15.5 15.5 0 8.562 6.94 15.5 15.5 15.5s15.5-6.938 15.5-15.5c0-8.557-6.94-15.5-15.5-15.5zM16 7.375c1.45 0 2.625 1.175 2.625 2.625s-1.175 2.625-2.625 2.625-2.625-1.175-2.625-2.625 1.175-2.625 2.625-2.625zM19.5 23.25c0 0.414-0.336 0.75-0.75 0.75h-5.5c-0.414 0-0.75-0.336-0.75-0.75v-1.5c0-0.414 0.336-0.75 0.75-0.75h0.75v-4h-0.75c-0.414 0-0.75-0.336-0.75-0.75v-1.5c0-0.414 0.336-0.75 0.75-0.75h4c0.414 0 0.75 0.336 0.75 0.75v6.25h0.75c0.414 0 0.75 0.336 0.75 0.75v1.5z"></path>
</symbol>
<symbol id="icon-key" viewBox="0 0 32 32">
<path d="M32 11c0 6.075-4.925 11-11 11-0.701 0-1.387-0.066-2.052-0.192l-1.501 1.688c-0.276 0.309-0.676 0.503-1.121 0.503-0 0-0 0-0 0h-2.326v2.5c0 0.828-0.672 1.5-1.5 1.5h-2.5v2.5c0 0.828-0.672 1.5-1.5 1.5h-7c-0.828 0-1.5-0.672-1.5-1.5v-4.879c0-0.398 0.158-0.779 0.439-1.061l10.113-10.113c-0.358-1.085-0.552-2.244-0.552-3.448 0-6.075 4.925-11 11-11 6.093-0 11 4.907 11 11zM21 8c0 1.657 1.343 3 3 3s3-1.343 3-3-1.343-3-3-3-3 1.343-3 3z"></path>
</symbol>
<symbol id="icon-save" viewBox="0 0 32 32">
<path d="M3.421 0h17.912c1.652 0 3.237 0.655 4.406 1.822l4.428 4.417c1.173 1.17 1.833 2.76 1.833 4.417v17.923c0 1.89-1.532 3.421-3.421 3.421h-25.157c-1.89 0-3.421-1.532-3.421-3.421v-25.157c0-1.89 1.532-3.421 3.421-3.421zM6.038 4.629c-0.778 0-1.409 0.631-1.409 1.409v6.239c0 0.778 0.631 1.409 1.409 1.409h15.497c0.778 0 1.409-0.631 1.409-1.409v-6.239c0-0.778-0.631-1.409-1.409-1.409h-15.497zM16 27.371c2.501 0 4.528-2.027 4.528-4.528s-2.027-4.528-4.528-4.528c-2.501 0-4.528 2.027-4.528 4.528s2.027 4.528 4.528 4.528z"></path>
</symbol>
<symbol id="icon-forward" viewBox="0 0 48 32">
<path d="M46.091 12.856l-15.866-12.007c-1.751-1.325-4.244-0.98-5.569 0.771-0.523 0.691-0.805 1.533-0.805 2.399v23.978c0 2.195 1.78 3.975 3.975 3.975 0.864 0 1.704-0.282 2.394-0.802l15.866-11.971c1.753-1.322 2.101-3.815 0.779-5.567-0.221-0.293-0.482-0.554-0.774-0.776z"></path>
<path d="M22.24 12.856l-15.866-12.007c-1.751-1.325-4.244-0.98-5.569 0.771-0.523 0.691-0.805 1.533-0.805 2.399v23.978c0 2.195 1.78 3.975 3.975 3.975 0.864 0 1.704-0.282 2.394-0.802l15.866-11.971c1.753-1.322 2.101-3.815 0.779-5.567-0.221-0.293-0.482-0.554-0.774-0.776z"></path>
</symbol>
<symbol id="icon-backward" viewBox="0 0 48 32">
<path d="M1.611 12.856l15.866-12.007c1.751-1.325 4.244-0.98 5.569 0.771 0.523 0.691 0.805 1.533 0.805 2.399v23.978c0 2.195-1.78 3.975-3.975 3.975-0.864 0-1.704-0.282-2.394-0.802l-15.866-11.971c-1.753-1.322-2.101-3.815-0.779-5.567 0.221-0.293 0.482-0.554 0.774-0.776z"></path>
<path d="M25.462 12.856l15.866-12.007c1.751-1.325 4.244-0.98 5.569 0.771 0.523 0.691 0.805 1.533 0.805 2.399v23.978c0 2.195-1.78 3.975-3.975 3.975-0.864 0-1.705-0.282-2.394-0.802l-15.866-11.971c-1.753-1.322-2.101-3.815-0.779-5.567 0.221-0.293 0.482-0.554 0.774-0.776z"></path>
</symbol>
<symbol id="icon-collapse-depth" viewBox="0 0 30 32">
<path d="M15.068 22.416l-7.581-3.676-6.701 3.652c-0.688 0.375-0.942 1.237-0.567 1.925 0.137 0.252 0.348 0.457 0.604 0.587l13.612 6.9c0.406 0.206 0.886 0.204 1.291-0.004l13.385-6.896c0.697-0.359 0.97-1.214 0.611-1.911-0.131-0.255-0.336-0.464-0.589-0.599l-6.791-3.657-7.275 3.68zM3.159 23.612l4.388-2.391 6.91 3.351c0.399 0.193 0.864 0.189 1.26-0.011l6.595-3.337 4.46 2.401-11.696 6.026-11.916-6.040z"></path>
<path d="M14.977 14.759l-7.142-3.78-7.108 4.173c-0.676 0.397-0.902 1.266-0.505 1.942 0.138 0.234 0.34 0.424 0.582 0.547l13.632 6.91c0.406 0.206 0.886 0.204 1.291-0.004l13.423-6.915c0.697-0.359 0.97-1.214 0.611-1.911-0.117-0.228-0.294-0.42-0.512-0.555l-6.73-4.186-7.543 3.78zM3.089 16.325l4.802-2.819 6.413 3.394c0.405 0.215 0.889 0.22 1.299 0.014l6.801-3.408 4.501 2.8-11.83 6.095-11.986-6.076z"></path>
<path d="M0.839 9.741l13.597 6.892c0.406 0.206 0.886 0.204 1.291-0.004l13.377-6.892c0.697-0.359 0.97-1.214 0.611-1.911-0.134-0.259-0.344-0.471-0.602-0.607l-13.377-7.016c-0.41-0.215-0.898-0.216-1.31-0.004l-13.597 7.016c-0.696 0.359-0.97 1.215-0.61 1.911 0.137 0.265 0.353 0.48 0.619 0.615zM3.212 8.469l11.863-6.122 11.672 6.122-11.672 6.013-11.863-6.013z"></path>
</symbol>
<symbol id="icon-hide-connections" viewBox="0 0 33 32">
<path d="M11.503 23.11c0.985 0.597 2.14 0.941 3.376 0.941 3.602 0 6.522-2.92 6.522-6.522 0-1.717-0.664-3.279-1.748-4.444l-8.15 10.026zM9.683 21.471l7.995-9.835c-0.848-0.404-1.797-0.63-2.799-0.63-3.602 0-6.522 2.92-6.522 6.522 0 1.482 0.494 2.848 1.326 3.943zM24.051 6.42h-16.451c-0.622 1.382-2.012 2.344-3.626 2.344-2.195 0-3.975-1.779-3.975-3.975s1.779-3.975 3.975-3.975c1.614 0 3.003 0.962 3.626 2.344h16.451v-3.159h8.764v8.764h-2.464v15.674c1.337 0.64 2.26 2.006 2.26 3.587 0 2.195-1.779 3.975-3.975 3.975s-3.975-1.779-3.975-3.975c0-1.646 1.001-3.059 2.428-3.662v-15.599h-3.039v-2.344zM14.879 25.682c-4.503 0-8.153-3.65-8.153-8.153s3.65-8.153 8.153-8.153c4.503 0 8.153 3.65 8.153 8.153s-3.65 8.153-8.153 8.153z"></path>
</symbol>
<symbol id="icon-linear-solver" viewBox="0 0 34 32">
<path d="M28.474 26.434v-1.398c0-0.305 0.247-0.552 0.552-0.552 0.114 0 0.225 0.035 0.319 0.101l5.015 3.546-5.008 3.657c-0.246 0.18-0.591 0.126-0.771-0.12-0.069-0.094-0.106-0.208-0.106-0.325v-1.415h-26.552v-3.494h0.1v-20.487h-1.318c-0.305 0-0.552-0.247-0.552-0.552 0-0.114 0.035-0.225 0.101-0.319l3.546-5.015 3.657 5.008c0.18 0.246 0.126 0.591-0.12 0.771-0.094 0.069-0.208 0.106-0.325 0.106h-1.495v20.487h22.958zM28.377 19.765h-2.35l-1.622-2.681-1.6 2.681h-2.019l2.637-4.039-2.56-3.939h2.339l1.401 2.372 1.401-2.372h1.986l-2.417 3.674 2.803 4.303zM10.356 24.175c-0.297 0.699-1.103 1.024-1.8 0.726s-1.022-1.106-0.724-1.804l8.289-19.501c0.297-0.699 1.103-1.024 1.8-0.726s1.022 1.106 0.724 1.804l-8.289 19.501z"></path>
</symbol>
<symbol id="icon-model-height" viewBox="0 0 22 32">
<path d="M18.38 16.554l2.163-2.2c0.352-0.358 0.927-0.363 1.284-0.011s0.363 0.927 0.011 1.284l-3.459 3.518v0.073h-0.071l-0.83 0.844-0.848-0.844h-0.067v-0.067l-3.533-3.517c-0.356-0.354-0.357-0.929-0.003-1.285s0.929-0.357 1.285-0.003l2.251 2.241v-12.684l-2.251 2.241c-0.356 0.354-0.931 0.353-1.285-0.003s-0.353-0.931 0.003-1.285l4.448-4.428 4.36 4.435c0.352 0.358 0.347 0.933-0.011 1.284s-0.933 0.347-1.284-0.011l-2.163-2.2v12.617zM5.003 2.916h3.929c0.54 0 0.978 0.438 0.978 0.978s-0.438 0.978-0.978 0.978h-3.929v20.421h13.722c1.852 0 3.354 1.502 3.354 3.354v2.236c0 0.617-0.5 1.118-1.118 1.118h-19.843c-0.617 0-1.118-0.5-1.118-1.118v-2.236c0-1.796 1.412-3.262 3.186-3.35 0-0.001 0-0.003 0-0.004v-24.285c0-0.502 0.407-0.908 0.908-0.908s0.908 0.407 0.908 0.908v1.909zM7.266 9.432c-0.54 0-0.978-0.438-0.978-0.978s0.438-0.978 0.978-0.978h1.344c0.54 0 0.978 0.438 0.978 0.978s-0.438 0.978-0.978 0.978h-1.344zM7.266 18.096c-0.54 0-0.978-0.438-0.978-0.978s0.438-0.978 0.978-0.978h1.344c0.54 0 0.978 0.438 0.978 0.978s-0.438 0.978-0.978 0.978h-1.344zM7.266 22.707c-0.54 0-0.978-0.438-0.978-0.978s0.438-0.978 0.978-0.978h1.344c0.54 0 0.978 0.438 0.978 0.978s-0.438 0.978-0.978 0.978h-1.344zM7.266 13.624c-0.54 0-0.978-0.438-0.978-0.978s0.438-0.978 0.978-0.978h1.344c0.54 0 0.978 0.438 0.978 0.978s-0.438 0.978-0.978 0.978h-1.344z"></path>
</symbol>
<symbol id="icon-nonlinear-solver" viewBox="0 0 35 32">
<path d="M2.022 26.531v-20.584h-1.444c-0.305 0-0.552-0.247-0.552-0.552 0-0.114 0.035-0.225 0.101-0.319l3.546-5.015 3.657 5.008c0.18 0.246 0.126 0.591-0.12 0.771-0.094 0.069-0.208 0.106-0.325 0.106h-1.37v20.584h22.98v3.494h-26.575v-3.494h0.1zM29.403 24.585l5.015 3.546-5.008 3.657c-0.246 0.18-0.591 0.126-0.771-0.12-0.069-0.094-0.106-0.208-0.106-0.325v-6.308c0-0.305 0.247-0.552 0.552-0.552 0.114 0 0.225 0.035 0.319 0.101zM28.377 19.862h-2.35l-1.622-2.681-1.6 2.681h-2.019l2.637-4.039-2.56-3.939h2.339l1.401 2.372 1.401-2.372h1.986l-2.417 3.674 2.803 4.303zM9.336 24.889c3.055 0 5.531-2.463 5.531-5.5v-10.726c0-1.282 1.045-2.321 2.334-2.321 0.774 0 1.401-0.624 1.401-1.393s-0.627-1.393-1.401-1.393c-2.836 0-5.136 2.286-5.136 5.107v10.726c0 1.499-1.222 2.714-2.729 2.714-0.774 0-1.401 0.624-1.401 1.393s0.627 1.393 1.401 1.393z"></path>
</symbol>
<symbol id="icon-show-connections" viewBox="0 0 33 32">
<path d="M24.051 6.42h-16.451c-0.622 1.382-2.012 2.344-3.626 2.344-2.195 0-3.975-1.779-3.975-3.975s1.779-3.975 3.975-3.975c1.614 0 3.003 0.962 3.626 2.344h16.451v-3.159h8.764v8.764h-2.464v15.674c1.337 0.64 2.26 2.006 2.26 3.587 0 2.195-1.779 3.975-3.975 3.975s-3.975-1.779-3.975-3.975c0-1.646 1.001-3.059 2.428-3.662v-15.599h-3.039v-2.344z"></path>
</symbol>
<symbol id="icon-home2" viewBox="0 0 32 32">
<path d="M16 1l-16 16 3 3 3-3v13h8v-6h4v6h8v-13l3 3 3-3-16-16zM16 14c-1.105 0-2-0.895-2-2s0.895-2 2-2c1.105 0 2 0.895 2 2s-0.895 2-2 2z"></path>
</symbol>
<symbol id="icon-floppy-disk" viewBox="0 0 32 32">
<path d="M28 0h-28v32h32v-28l-4-4zM16 4h4v8h-4v-8zM28 28h-24v-24h2v10h18v-10h2.343l1.657 1.657v22.343z"></path>
</symbol>
<symbol id="icon-search" viewBox="0 0 32 32">
<path d="M31.008 27.231l-7.58-6.447c-0.784-0.705-1.622-1.029-2.299-0.998 1.789-2.096 2.87-4.815 2.87-7.787 0-6.627-5.373-12-12-12s-12 5.373-12 12 5.373 12 12 12c2.972 0 5.691-1.081 7.787-2.87-0.031 0.677 0.293 1.515 0.998 2.299l6.447 7.58c1.104 1.226 2.907 1.33 4.007 0.23s0.997-2.903-0.23-4.007zM12 20c-4.418 0-8-3.582-8-8s3.582-8 8-8 8 3.582 8 8-3.582 8-8 8z"></path>
</symbol>
<symbol id="icon-enlarge" viewBox="0 0 32 32">
<path d="M32 0h-13l5 5-6 6 3 3 6-6 5 5z"></path>
<path d="M32 32v-13l-5 5-6-6-3 3 6 6-5 5z"></path>
<path d="M0 32h13l-5-5 6-6-3-3-6 6-5-5z"></path>
<path d="M0 0v13l5-5 6 6 3-3-6-6 5-5z"></path>
</symbol>
<symbol id="icon-shrink" viewBox="0 0 32 32">
<path d="M18 14h13l-5-5 6-6-3-3-6 6-5-5z"></path>
<path d="M18 18v13l5-5 6 6 3-3-6-6 5-5z"></path>
<path d="M14 18h-13l5 5-6 6 3 3 6-6 5 5z"></path>
<path d="M14 14v-13l-5 5-6-6-3 3 6 6-5 5z"></path>
</symbol>
<symbol id="icon-enlarge2" viewBox="0 0 32 32">
<path d="M32 0v13l-5-5-6 6-3-3 6-6-5-5zM14 21l-6 6 5 5h-13v-13l5 5 6-6z"></path>
</symbol>
<symbol id="icon-shrink2" viewBox="0 0 32 32">
<path d="M14 18v13l-5-5-6 6-3-3 6-6-5-5zM32 3l-6 6 5 5h-13v-13l5 5 6-6z"></path>
</symbol>
<symbol id="icon-text-height" viewBox="0 0 32 32">
<path d="M28 24h4l-5 6-5-6h4v-16h-4l5-6 5 6h-4zM20 2v8l-2-4h-6v22h4v2h-12v-2h4v-22h-6l-2 4v-8z"></path>
</symbol>
</defs>
</svg>
