<?xml version="1.0" encoding="UTF-8" standalone="no"?>
<svg
   inkscape:version="1.1.1 (c3084ef, 2021-09-22)"
   sodipodi:docname="collapse-target.svg"
   id="svg20"
   viewBox="0 0 32 32"
   height="32"
   width="32"
   version="1.1"
   xmlns:inkscape="http://www.inkscape.org/namespaces/inkscape"
   xmlns:sodipodi="http://sodipodi.sourceforge.net/DTD/sodipodi-0.dtd"
   xmlns="http://www.w3.org/2000/svg"
   xmlns:svg="http://www.w3.org/2000/svg"
   xmlns:rdf="http://www.w3.org/1999/02/22-rdf-syntax-ns#"
   xmlns:cc="http://creativecommons.org/ns#"
   xmlns:dc="http://purl.org/dc/elements/1.1/">
  <metadata
     id="metadata26">
    <rdf:RDF>
      <cc:Work
         rdf:about="">
        <dc:format>image/svg+xml</dc:format>
        <dc:type
           rdf:resource="http://purl.org/dc/dcmitype/StillImage" />
        <dc:title>enlarge</dc:title>
      </cc:Work>
    </rdf:RDF>
  </metadata>
  <defs
     id="defs24" />
  <sodipodi:namedview
     inkscape:current-layer="svg20"
     inkscape:window-maximized="0"
     inkscape:window-y="53"
     inkscape:window-x="2680"
     inkscape:cy="16.015873"
     inkscape:cx="20.857143"
     inkscape:zoom="31.5"
     inkscape:object-paths="true"
     inkscape:snap-grids="true"
     showgrid="false"
     id="namedview22"
     inkscape:window-height="1185"
     inkscape:window-width="2085"
     inkscape:pageshadow="2"
     inkscape:pageopacity="0"
     guidetolerance="10"
     gridtolerance="10"
     objecttolerance="10"
     borderopacity="1"
     bordercolor="#666666"
     pagecolor="#ffffff"
     inkscape:pagecheckerboard="0" />
  <title
     id="title10">enlarge</title>
  <path
     style="color:#000000;fill:#000000;fill-rule:evenodd;-inkscape-stroke:none"
     d="M 16,0.07617187 C 7.2302093,0.07617187 0.10742188,7.2220706 0.10742187,16.015625 0.10742188,24.809179 7.2302093,31.957031 16,31.957031 c 8.769791,0 15.892578,-7.147852 15.892578,-15.941406 C 31.892578,7.2220706 24.769791,0.07617187 16,0.07617187 Z m 0,1.49414063 c 7.959402,0 14.398437,6.4570751 14.398437,14.4453125 0,7.988237 -6.439035,14.445312 -14.398437,14.445312 -7.9594016,0 -14.3984375,-6.457075 -14.3984375,-14.445312 C 1.6015625,8.0273876 8.0405984,1.5703125 16,1.5703125 Z"
     id="path934" />
  <g
     id="g4832"
     transform="matrix(1.1839714,0,0,1.1962926,-4.7097143,-4.1957672)">
    <path
       style="stroke-width:0.591161"
       id="path1173"
       d="m 17.810193,28.677191 5.366846,-5.366846 -4.180462,-0.05212 -0.06254,-5.016555 -2.508278,-0.03127 0.06254,5.016555 -4.180463,-0.05212 z" />
    <path
       style="stroke-width:0.591161"
       id="path1170"
       d="m 17.523142,5.1138524 5.502356,5.5023566 -4.180463,-0.05212 0.06254,5.016554 -2.508278,-0.03127 -0.06254,-5.016556 -4.180463,-0.05212 z" />
    <path
       d="m 15.67784,16.884627 -5.502356,5.502356 0.05212,-4.180463 -5.0165542,0.06254 0.03127,-2.508278 5.0165562,-0.06254 0.05212,-4.180463 z"
       id="path1167"
       style="stroke-width:0.591161" />
    <path
       d="m 19.750732,16.988389 5.502356,-5.502356 -0.05212,4.180463 5.016555,-0.06254 -0.03127,2.508278 -5.016557,0.06254 -0.05212,4.180463 z"
       id="path1164"
       style="stroke-width:0.591161" />
  </g>
</svg>
