<?xml version="1.0" encoding="UTF-8" standalone="no"?>
<svg
   xmlns:dc="http://purl.org/dc/elements/1.1/"
   xmlns:cc="http://creativecommons.org/ns#"
   xmlns:rdf="http://www.w3.org/1999/02/22-rdf-syntax-ns#"
   xmlns:svg="http://www.w3.org/2000/svg"
   xmlns="http://www.w3.org/2000/svg"
   xmlns:sodipodi="http://sodipodi.sourceforge.net/DTD/sodipodi-0.dtd"
   xmlns:inkscape="http://www.inkscape.org/namespaces/inkscape"
   inkscape:version="1.0 (4035a4f, 2020-05-01)"
   sodipodi:docname="collapse-target.svg"
   id="svg20"
   viewBox="0 0 32 32"
   height="32"
   width="32"
   version="1.1">
  <metadata
     id="metadata26">
    <rdf:RDF>
      <cc:Work
         rdf:about="">
        <dc:format>image/svg+xml</dc:format>
        <dc:type
           rdf:resource="http://purl.org/dc/dcmitype/StillImage" />
        <dc:title>enlarge</dc:title>
      </cc:Work>
    </rdf:RDF>
  </metadata>
  <defs
     id="defs24" />
  <sodipodi:namedview
     inkscape:current-layer="svg20"
     inkscape:window-maximized="0"
     inkscape:window-y="49"
     inkscape:window-x="2338"
     inkscape:cy="16"
     inkscape:cx="9.8888889"
     inkscape:zoom="31.5"
     inkscape:object-paths="true"
     inkscape:snap-grids="true"
     showgrid="false"
     id="namedview22"
     inkscape:window-height="1185"
     inkscape:window-width="2085"
     inkscape:pageshadow="2"
     inkscape:pageopacity="0"
     guidetolerance="10"
     gridtolerance="10"
     objecttolerance="10"
     borderopacity="1"
     bordercolor="#666666"
     pagecolor="#ffffff" />
  <title
     id="title10">enlarge</title>
  <path
     style="stroke-width:0.591161"
     id="path12"
     d="m 17.810193,28.677191 5.366846,-5.366846 -4.180462,-0.05212 -0.06254,-5.016555 -2.508278,-0.03127 0.06254,5.016555 -4.180463,-0.05212 z" />
  <path
     style="stroke-width:0.591161"
     id="path14"
     d="m 17.523142,5.1138524 5.502356,5.5023566 -4.180463,-0.05212 0.06254,5.016554 -2.508278,-0.03127 -0.06254,-5.016556 -4.180463,-0.05212 z" />
  <path
     d="m 15.67784,16.884627 -5.502356,5.502356 0.05212,-4.180463 -5.0165542,0.06254 0.03127,-2.508278 5.0165562,-0.06254 0.05212,-4.180463 z"
     id="path14-2"
     style="stroke-width:0.591161" />
  <path
     d="m 19.750732,16.988389 5.502356,-5.502356 -0.05212,4.180463 5.016555,-0.06254 -0.03127,2.508278 -5.016557,0.06254 -0.05212,4.180463 z"
     id="path14-6"
     style="stroke-width:0.591161" />
  <path
     sodipodi:nodetypes="cccccccc"
     id="path1056"
     d="M 0.97904561,1.4682201 1.6814197,10.385043 3.5153965,7.3871453 6.5590176,11.076865 8.1198484,9.8853929 5.0762278,6.1572387 8.1978911,5.5038509 Z"
     style="fill:none;stroke:#000000;stroke-width:1.21989px;stroke-linecap:butt;stroke-linejoin:miter;stroke-opacity:1" />
</svg>
