<?xml version="1.0" encoding="UTF-8" standalone="no"?>
<svg
   inkscape:version="1.1.1 (c3084ef, 2021-09-22)"
   sodipodi:docname="filter-target.svg"
   id="svg20"
   viewBox="0 0 32 32"
   height="32"
   width="32"
   version="1.1"
   xmlns:inkscape="http://www.inkscape.org/namespaces/inkscape"
   xmlns:sodipodi="http://sodipodi.sourceforge.net/DTD/sodipodi-0.dtd"
   xmlns="http://www.w3.org/2000/svg"
   xmlns:svg="http://www.w3.org/2000/svg"
   xmlns:rdf="http://www.w3.org/1999/02/22-rdf-syntax-ns#"
   xmlns:cc="http://creativecommons.org/ns#"
   xmlns:dc="http://purl.org/dc/elements/1.1/">
  <metadata
     id="metadata26">
    <rdf:RDF>
      <cc:Work
         rdf:about="">
        <dc:format>image/svg+xml</dc:format>
        <dc:type
           rdf:resource="http://purl.org/dc/dcmitype/StillImage" />
        <dc:title>enlarge</dc:title>
      </cc:Work>
    </rdf:RDF>
  </metadata>
  <defs
     id="defs24">
    <linearGradient
       id="linearGradient1084"
       inkscape:swatch="solid">
      <stop
         id="stop1082"
         offset="0"
         style="stop-color:#000000;stop-opacity:1;" />
    </linearGradient>
  </defs>
  <sodipodi:namedview
     inkscape:current-layer="svg20"
     inkscape:window-maximized="0"
     inkscape:window-y="90"
     inkscape:window-x="1856"
     inkscape:cy="16.015873"
     inkscape:cx="3.6349206"
     inkscape:zoom="31.5"
     inkscape:object-paths="true"
     inkscape:snap-grids="true"
     showgrid="false"
     id="namedview22"
     inkscape:window-height="1185"
     inkscape:window-width="2398"
     inkscape:pageshadow="2"
     inkscape:pageopacity="0"
     guidetolerance="10"
     gridtolerance="10"
     objecttolerance="10"
     borderopacity="1"
     bordercolor="#666666"
     pagecolor="#ffffff"
     inkscape:pagecheckerboard="0" />
  <title
     id="title10">enlarge</title>
  <g
     id="path1080"
     transform="translate(-5.1905793,-2.3165806)">
    <path
       style="color:#000000;fill:#000000;fill-opacity:0.566802;fill-rule:evenodd;stroke-width:2.5;-inkscape-stroke:none"
       d="m 30.880106,10.642864 v 5.098223 l -6.975635,5.776829 -0.03423,9.354275 -4.999162,0.02569 -0.03423,-9.506651 -7.60456,-5.772473 v -5.007639 z"
       id="path4574" />
    <path
       style="color:#000000;fill:#000000;fill-rule:evenodd;-inkscape-stroke:none"
       d="m 9.9824219,9.359375 v 6.878906 l 7.6074221,5.775391 0.03516,10.140625 7.490234,-0.03906 0.03711,-10.007812 6.978515,-5.779297 V 9.3945313 l -1.248047,-0.00195 z m 2.5000001,2.503906 17.148437,0.02734 v 3.261719 l -6.974609,5.77539 -0.03125,8.701172 -2.507813,0.01367 -0.0332,-8.873047 -7.601562,-5.771484 z"
       id="path4576" />
  </g>
  <path
     style="color:#000000;fill:#000000;fill-rule:evenodd;-inkscape-stroke:none"
     d="m 16.095238,0.05957048 c -8.7697907,0 -15.89257802,7.14589862 -15.89257802,15.93945252 0,8.793554 7.12278732,15.941406 15.89257802,15.941406 8.769791,0 15.892578,-7.147852 15.892578,-15.941406 0,-8.7935539 -7.122787,-15.93945252 -15.892578,-15.93945252 z m 0,1.49414002 c 7.959402,0 14.398437,6.4570756 14.398437,14.4453125 0,7.988237 -6.439035,14.445312 -14.398437,14.445312 C 8.1358364,30.444335 1.6968,23.98726 1.6968,15.999023 1.6968,8.0107861 8.1358364,1.5537105 16.095238,1.5537105 Z"
     id="path934" />
</svg>
