<!-- Generated by IcoMoon.io -->
<svg version="1.1" xmlns="http://www.w3.org/2000/svg" width="48" height="32" viewBox="0 0 48 32">
<title>forward</title>
<path d="M46.091 12.856l-15.866-12.007c-1.751-1.325-4.244-0.98-5.569 0.771-0.523 0.691-0.805 1.533-0.805 2.399v23.978c0 2.195 1.78 3.975 3.975 3.975 0.864 0 1.704-0.282 2.394-0.802l15.866-11.971c1.753-1.322 2.101-3.815 0.779-5.567-0.221-0.293-0.482-0.554-0.774-0.776z"></path>
<path d="M22.24 12.856l-15.866-12.007c-1.751-1.325-4.244-0.98-5.569 0.771-0.523 0.691-0.805 1.533-0.805 2.399v23.978c0 2.195 1.78 3.975 3.975 3.975 0.864 0 1.704-0.282 2.394-0.802l15.866-11.971c1.753-1.322 2.101-3.815 0.779-5.567-0.221-0.293-0.482-0.554-0.774-0.776z"></path>
</svg>
