<!-- Generated by IcoMoon.io -->
<svg version="1.1" xmlns="http://www.w3.org/2000/svg" width="33" height="32" viewBox="0 0 33 32">
<title>hide-connections</title>
<path d="M11.503 23.11c0.985 0.597 2.14 0.941 3.376 0.941 3.602 0 6.522-2.92 6.522-6.522 0-1.717-0.664-3.279-1.748-4.444l-8.15 10.026zM9.683 21.471l7.995-9.835c-0.848-0.404-1.797-0.63-2.799-0.63-3.602 0-6.522 2.92-6.522 6.522 0 1.482 0.494 2.848 1.326 3.943zM24.051 6.42h-16.451c-0.622 1.382-2.012 2.344-3.626 2.344-2.195 0-3.975-1.779-3.975-3.975s1.779-3.975 3.975-3.975c1.614 0 3.003 0.962 3.626 2.344h16.451v-3.159h8.764v8.764h-2.464v15.674c1.337 0.64 2.26 2.006 2.26 3.587 0 2.195-1.779 3.975-3.975 3.975s-3.975-1.779-3.975-3.975c0-1.646 1.001-3.059 2.428-3.662v-15.599h-3.039v-2.344zM14.879 25.682c-4.503 0-8.153-3.65-8.153-8.153s3.65-8.153 8.153-8.153c4.503 0 8.153 3.65 8.153 8.153s-3.65 8.153-8.153 8.153z"></path>
</svg>
