<!-- Generated by IcoMoon.io -->
<svg version="1.1" xmlns="http://www.w3.org/2000/svg" width="32" height="32" viewBox="0 0 32 32">
<title>info-circle</title>
<path d="M16 0.5c-8.56 0-15.5 6.943-15.5 15.5 0 8.562 6.94 15.5 15.5 15.5s15.5-6.938 15.5-15.5c0-8.557-6.94-15.5-15.5-15.5zM16 7.375c1.45 0 2.625 1.175 2.625 2.625s-1.175 2.625-2.625 2.625-2.625-1.175-2.625-2.625 1.175-2.625 2.625-2.625zM19.5 23.25c0 0.414-0.336 0.75-0.75 0.75h-5.5c-0.414 0-0.75-0.336-0.75-0.75v-1.5c0-0.414 0.336-0.75 0.75-0.75h0.75v-4h-0.75c-0.414 0-0.75-0.336-0.75-0.75v-1.5c0-0.414 0.336-0.75 0.75-0.75h4c0.414 0 0.75 0.336 0.75 0.75v6.25h0.75c0.414 0 0.75 0.336 0.75 0.75v1.5z"></path>
</svg>
