<!-- Generated by IcoMoon.io -->
<svg version="1.1" xmlns="http://www.w3.org/2000/svg" width="32" height="32" viewBox="0 0 32 32">
<title>key</title>
<path d="M32 11c0 6.075-4.925 11-11 11-0.701 0-1.387-0.066-2.052-0.192l-1.501 1.688c-0.276 0.309-0.676 0.503-1.121 0.503-0 0-0 0-0 0h-2.326v2.5c0 0.828-0.672 1.5-1.5 1.5h-2.5v2.5c0 0.828-0.672 1.5-1.5 1.5h-7c-0.828 0-1.5-0.672-1.5-1.5v-4.879c0-0.398 0.158-0.779 0.439-1.061l10.113-10.113c-0.358-1.085-0.552-2.244-0.552-3.448 0-6.075 4.925-11 11-11 6.093-0 11 4.907 11 11zM21 8c0 1.657 1.343 3 3 3s3-1.343 3-3-1.343-3-3-3-3 1.343-3 3z"></path>
</svg>
