<!-- Generated by IcoMoon.io -->
<svg version="1.1" xmlns="http://www.w3.org/2000/svg" width="22" height="32" viewBox="0 0 22 32">
<title>model-height</title>
<path d="M18.38 16.554l2.163-2.2c0.352-0.358 0.927-0.363 1.284-0.011s0.363 0.927 0.011 1.284l-3.459 3.518v0.073h-0.071l-0.83 0.844-0.848-0.844h-0.067v-0.067l-3.533-3.517c-0.356-0.354-0.357-0.929-0.003-1.285s0.929-0.357 1.285-0.003l2.251 2.241v-12.684l-2.251 2.241c-0.356 0.354-0.931 0.353-1.285-0.003s-0.353-0.931 0.003-1.285l4.448-4.428 4.36 4.435c0.352 0.358 0.347 0.933-0.011 1.284s-0.933 0.347-1.284-0.011l-2.163-2.2v12.617zM5.003 2.916h3.929c0.54 0 0.978 0.438 0.978 0.978s-0.438 0.978-0.978 0.978h-3.929v20.421h13.722c1.852 0 3.354 1.502 3.354 3.354v2.236c0 0.617-0.5 1.118-1.118 1.118h-19.843c-0.617 0-1.118-0.5-1.118-1.118v-2.236c0-1.796 1.412-3.262 3.186-3.35 0-0.001 0-0.003 0-0.004v-24.285c0-0.502 0.407-0.908 0.908-0.908s0.908 0.407 0.908 0.908v1.909zM7.266 9.432c-0.54 0-0.978-0.438-0.978-0.978s0.438-0.978 0.978-0.978h1.344c0.54 0 0.978 0.438 0.978 0.978s-0.438 0.978-0.978 0.978h-1.344zM7.266 18.096c-0.54 0-0.978-0.438-0.978-0.978s0.438-0.978 0.978-0.978h1.344c0.54 0 0.978 0.438 0.978 0.978s-0.438 0.978-0.978 0.978h-1.344zM7.266 22.707c-0.54 0-0.978-0.438-0.978-0.978s0.438-0.978 0.978-0.978h1.344c0.54 0 0.978 0.438 0.978 0.978s-0.438 0.978-0.978 0.978h-1.344zM7.266 13.624c-0.54 0-0.978-0.438-0.978-0.978s0.438-0.978 0.978-0.978h1.344c0.54 0 0.978 0.438 0.978 0.978s-0.438 0.978-0.978 0.978h-1.344z"></path>
</svg>
