<svg width="30" height="30" viewBox="0 0 30 30" fill="none" xmlns="http://www.w3.org/2000/svg">
<path fill-rule="evenodd" clip-rule="evenodd" d="M6.8536 5.65312C6.75602 5.73795 6.66011 5.82399 6.56588 5.91121L8.47705 8.54381C8.5909 8.70026 8.55678 8.91971 8.40115 9.03424C8.34175 9.07811 8.2696 9.10166 8.19565 9.10166H7.32923V21.7726L8.92077 19.9418C8.99549 19.7516 9.13409 19.5934 9.31019 19.4938L11.4716 17.0074V10.83C11.4716 9.03551 12.9261 7.58134 14.7196 7.58134C15.2091 7.58134 15.6057 7.97824 15.6057 8.46746C15.6057 8.95661 15.2091 9.35359 14.7196 9.35359C13.9044 9.35359 13.2436 10.0145 13.2436 10.83V14.9689L21.949 4.95453C17.4687 1.72729 11.2013 1.87375 6.8536 5.65312ZM24.1496 6.9958L18.7247 13.2364L19.4007 14.3879L20.2868 12.879H21.5427L20.0142 15.2161L21.7869 17.9533L21.7875 17.954H20.3013L19.2756 16.2486L18.2637 17.954H16.9869L18.6545 15.3846L17.8882 14.1987L10.9365 22.1957H21.8622V24.4183H9.0044L8.36513 25.1537C12.4632 27.729 17.8227 27.6606 21.8862 24.7699V21.2447C21.8862 21.0507 22.0424 20.8935 22.2353 20.8935C22.3074 20.8935 22.3776 20.9158 22.437 20.9577L22.4364 20.9584L24.4138 22.3649C27.9225 17.9107 27.9262 11.4745 24.1496 6.9958ZM5.12021 22.1713C2.20008 18.3073 1.91631 13.1783 4.10782 9.08798C4.13926 9.09732 4.17255 9.10234 4.207 9.10234H5.12021V22.1713ZM3.76586 24.4679C-1.55097 18.3516 -0.902864 9.08318 5.21345 3.76635C11.3298 -1.55049 20.5982 -0.902372 25.915 5.21394C31.2318 11.3303 30.5837 20.5987 24.4674 25.9155C18.3511 31.2323 9.0827 30.5842 3.76586 24.4679Z" fill="black"/>
</svg>
