<?xml version="1.0" encoding="UTF-8" standalone="no"?>
<svg
   xmlns:dc="http://purl.org/dc/elements/1.1/"
   xmlns:cc="http://creativecommons.org/ns#"
   xmlns:rdf="http://www.w3.org/1999/02/22-rdf-syntax-ns#"
   xmlns:svg="http://www.w3.org/2000/svg"
   xmlns="http://www.w3.org/2000/svg"
   xmlns:sodipodi="http://sodipodi.sourceforge.net/DTD/sodipodi-0.dtd"
   xmlns:inkscape="http://www.inkscape.org/namespaces/inkscape"
   inkscape:version="1.0 (4035a4f, 2020-05-01)"
   sodipodi:docname="notification.svg"
   id="svg14"
   viewBox="0 0 32 32"
   height="32"
   width="32"
   version="1.1">
  <metadata
     id="metadata20">
    <rdf:RDF>
      <cc:Work
         rdf:about="">
        <dc:format>image/svg+xml</dc:format>
        <dc:type
           rdf:resource="http://purl.org/dc/dcmitype/StillImage" />
        <dc:title>notification</dc:title>
      </cc:Work>
    </rdf:RDF>
  </metadata>
  <defs
     id="defs18" />
  <sodipodi:namedview
     inkscape:current-layer="svg14"
     inkscape:window-maximized="0"
     inkscape:window-y="23"
     inkscape:window-x="0"
     inkscape:cy="512"
     inkscape:cx="512"
     inkscape:zoom="0.984375"
     showgrid="false"
     id="namedview16"
     inkscape:window-height="1346"
     inkscape:window-width="1768"
     inkscape:pageshadow="2"
     inkscape:pageopacity="0"
     guidetolerance="10"
     gridtolerance="10"
     objecttolerance="10"
     borderopacity="1"
     bordercolor="#666666"
     pagecolor="#ffffff" />
  <title
     id="title10">notification</title>
  <path
     style="stroke-width:0.03125"
     id="path12"
     d="M 16,3 C 12.527563,3 9.263,4.35225 6.807625,6.807625 4.35225,9.263 3,12.527563 3,16 3,19.472438 4.35225,22.737 6.807625,25.192375 9.263,27.64775 12.527563,29 16,29 19.472438,29 22.737,27.64775 25.192375,25.192375 27.64775,22.737 29,19.472438 29,16 29,12.527563 27.64775,9.263 25.192375,6.807625 22.737,4.35225 19.472438,3 16,3 Z M 16,0 V 0 C 24.836562,0 32,7.1634375 32,16 32,24.836562 24.836562,32 16,32 7.1634375,32 0,24.836562 0,16 0,7.1634375 7.1634375,0 16,0 Z m -2,22 h 4 v 4 H 14 Z M 14,6 h 4 v 12 h -4 z" />
</svg>
