<!-- Generated by IcoMoon.io -->
<svg version="1.1" xmlns="http://www.w3.org/2000/svg" width="30" height="32" viewBox="0 0 30 32">
<title>collapse-depth</title>
<path d="M15.068 22.416l-7.581-3.676-6.701 3.652c-0.688 0.375-0.942 1.237-0.567 1.925 0.137 0.252 0.348 0.457 0.604 0.587l13.612 6.9c0.406 0.206 0.886 0.204 1.291-0.004l13.385-6.896c0.697-0.359 0.97-1.214 0.611-1.911-0.131-0.255-0.336-0.464-0.589-0.599l-6.791-3.657-7.275 3.68zM3.159 23.612l4.388-2.391 6.91 3.351c0.399 0.193 0.864 0.189 1.26-0.011l6.595-3.337 4.46 2.401-11.696 6.026-11.916-6.040z"></path>
<path d="M14.977 14.759l-7.142-3.78-7.108 4.173c-0.676 0.397-0.902 1.266-0.505 1.942 0.138 0.234 0.34 0.424 0.582 0.547l13.632 6.91c0.406 0.206 0.886 0.204 1.291-0.004l13.423-6.915c0.697-0.359 0.97-1.214 0.611-1.911-0.117-0.228-0.294-0.42-0.512-0.555l-6.73-4.186-7.543 3.78zM3.089 16.325l4.802-2.819 6.413 3.394c0.405 0.215 0.889 0.22 1.299 0.014l6.801-3.408 4.501 2.8-11.83 6.095-11.986-6.076z"></path>
<path d="M0.839 9.741l13.597 6.892c0.406 0.206 0.886 0.204 1.291-0.004l13.377-6.892c0.697-0.359 0.97-1.214 0.611-1.911-0.134-0.259-0.344-0.471-0.602-0.607l-13.377-7.016c-0.41-0.215-0.898-0.216-1.31-0.004l-13.597 7.016c-0.696 0.359-0.97 1.215-0.61 1.911 0.137 0.265 0.353 0.48 0.619 0.615zM3.212 8.469l11.863-6.122 11.672 6.122-11.672 6.013-11.863-6.013z"></path>
</svg>
