<!-- Generated by IcoMoon.io -->
<svg version="1.1" xmlns="http://www.w3.org/2000/svg" width="34" height="32" viewBox="0 0 34 32">
<title>linear-solver</title>
<path d="M28.474 26.434v-1.398c0-0.305 0.247-0.552 0.552-0.552 0.114 0 0.225 0.035 0.319 0.101l5.015 3.546-5.008 3.657c-0.246 0.18-0.591 0.126-0.771-0.12-0.069-0.094-0.106-0.208-0.106-0.325v-1.415h-26.552v-3.494h0.1v-20.487h-1.318c-0.305 0-0.552-0.247-0.552-0.552 0-0.114 0.035-0.225 0.101-0.319l3.546-5.015 3.657 5.008c0.18 0.246 0.126 0.591-0.12 0.771-0.094 0.069-0.208 0.106-0.325 0.106h-1.495v20.487h22.958zM28.377 19.765h-2.35l-1.622-2.681-1.6 2.681h-2.019l2.637-4.039-2.56-3.939h2.339l1.401 2.372 1.401-2.372h1.986l-2.417 3.674 2.803 4.303zM10.356 24.175c-0.297 0.699-1.103 1.024-1.8 0.726s-1.022-1.106-0.724-1.804l8.289-19.501c0.297-0.699 1.103-1.024 1.8-0.726s1.022 1.106 0.724 1.804l-8.289 19.501z"></path>
</svg>
