<!-- Generated by IcoMoon.io -->
<svg version="1.1" xmlns="http://www.w3.org/2000/svg" width="35" height="32" viewBox="0 0 35 32">
<title>nonlinear-solver</title>
<path d="M2.022 26.531v-20.584h-1.444c-0.305 0-0.552-0.247-0.552-0.552 0-0.114 0.035-0.225 0.101-0.319l3.546-5.015 3.657 5.008c0.18 0.246 0.126 0.591-0.12 0.771-0.094 0.069-0.208 0.106-0.325 0.106h-1.37v20.584h22.98v3.494h-26.575v-3.494h0.1zM29.403 24.585l5.015 3.546-5.008 3.657c-0.246 0.18-0.591 0.126-0.771-0.12-0.069-0.094-0.106-0.208-0.106-0.325v-6.308c0-0.305 0.247-0.552 0.552-0.552 0.114 0 0.225 0.035 0.319 0.101zM28.377 19.862h-2.35l-1.622-2.681-1.6 2.681h-2.019l2.637-4.039-2.56-3.939h2.339l1.401 2.372 1.401-2.372h1.986l-2.417 3.674 2.803 4.303zM9.336 24.889c3.055 0 5.531-2.463 5.531-5.5v-10.726c0-1.282 1.045-2.321 2.334-2.321 0.774 0 1.401-0.624 1.401-1.393s-0.627-1.393-1.401-1.393c-2.836 0-5.136 2.286-5.136 5.107v10.726c0 1.499-1.222 2.714-2.729 2.714-0.774 0-1.401 0.624-1.401 1.393s0.627 1.393 1.401 1.393z"></path>
</svg>
