<svg width="44" height="27" viewBox="0 0 44 27" fill="none" xmlns="http://www.w3.org/2000/svg">
<title>fx-2</title>
<path d="M0.410156 20.2822C1.02539 20.2334 1.46484 20.0967 1.72852 19.8721C2.00195 19.6475 2.13867 19.1787 2.13867 18.4658V8.70996H0.410156V7.3916H2.13867V6.27832C2.13867 4.88184 2.3584 3.73437 2.79785 2.83594C3.62793 1.15625 5.16113 0.316406 7.39746 0.316406C8.58887 0.316406 9.59473 0.589844 10.415 1.13672C11.2451 1.67383 11.6602 2.38672 11.6602 3.27539C11.6602 3.83203 11.4844 4.28125 11.1328 4.62305C10.791 4.96484 10.332 5.13574 9.75586 5.13574C9.27734 5.13574 8.86719 4.97949 8.52539 4.66699C8.18359 4.35449 8.0127 3.97852 8.0127 3.53906C8.0127 3.20703 8.12012 2.86035 8.33496 2.49902C8.55957 2.12793 8.67188 1.90332 8.67188 1.8252C8.67188 1.58105 8.58398 1.4248 8.4082 1.35645C8.23242 1.28809 8.04199 1.25391 7.83691 1.25391C7.34863 1.25391 6.97266 1.39551 6.70898 1.67871C6.44531 1.96191 6.31348 2.57227 6.31348 3.50977V7.3916H8.9209V8.70996H6.31348V17.9238C6.31348 18.959 6.45996 19.5938 6.75293 19.8281C7.05566 20.0625 7.71973 20.2139 8.74512 20.2822V21H0.410156V20.2822ZM11.3672 13.3975C11.3672 10.7119 11.9434 8.28516 13.0957 6.11719C14.4238 3.62695 16.4404 1.64453 19.1455 0.169922V1.00488C17.5342 2.14746 16.4746 3.27051 15.9668 4.37402C15.1758 6.1123 14.7803 9.02734 14.7803 13.1191C14.7803 17.2207 15.1807 20.1455 15.9814 21.8936C16.4893 23.0068 17.5439 24.125 19.1455 25.248V26.083C17.1045 25.0381 15.4248 23.5977 14.1064 21.7617C12.4365 19.4277 11.5234 16.6396 11.3672 13.3975ZM20.3906 20.3115C20.8887 20.2334 21.3135 20.0723 21.665 19.8281C22.0264 19.584 22.5732 19.0176 23.3057 18.1289C23.6084 17.7578 24.0088 17.2402 24.5068 16.5762C25.0049 15.9121 25.415 15.375 25.7373 14.9648L21.8848 9.06152C21.5723 8.58301 21.3232 8.28516 21.1377 8.16797C20.9521 8.05078 20.6787 7.96777 20.3174 7.91895V7.18652H27.8174V7.91895C27.124 8.0166 26.7188 8.08984 26.6016 8.13867C26.4844 8.17773 26.4258 8.29004 26.4258 8.47559C26.4258 8.7002 26.6797 9.20312 27.1875 9.98438C27.7051 10.7559 28.1592 11.3955 28.5498 11.9033C29.5459 10.6533 30.166 9.85254 30.4102 9.50098C30.6543 9.14941 30.7764 8.85645 30.7764 8.62207C30.7764 8.3291 30.6543 8.14355 30.4102 8.06543C30.1758 7.9873 29.7852 7.93848 29.2383 7.91895V7.18652H34.2773V7.91895C33.9062 7.9873 33.5986 8.07031 33.3545 8.16797C32.9053 8.36328 32.5195 8.66113 32.1973 9.06152L29.1357 12.8408L33.5889 19.6816C33.6963 19.8477 33.8135 19.9746 33.9404 20.0625C34.0771 20.1406 34.2578 20.2236 34.4824 20.3115V21H27.2607V20.3115C27.6807 20.292 28.0127 20.2432 28.2568 20.165C28.501 20.0869 28.623 19.9209 28.623 19.667C28.623 19.501 28.5205 19.2324 28.3154 18.8613C28.1982 18.6367 28.0078 18.3193 27.7441 17.9092C27.5977 17.6846 27.3877 17.377 27.1143 16.9863C26.8408 16.5859 26.5918 16.2148 26.3672 15.873C25.7324 16.6836 25.2588 17.3086 24.9463 17.748C24.292 18.666 23.9648 19.2568 23.9648 19.5205C23.9648 19.833 24.0869 20.0381 24.3311 20.1357C24.585 20.2334 24.9609 20.292 25.459 20.3115V21H20.3906V20.3115ZM43.4473 13.3975C43.3496 15.4971 42.9639 17.3379 42.29 18.9199C41.6162 20.502 40.6396 21.9863 39.3604 23.373C38.7354 24.0469 37.9883 24.667 37.1191 25.2334C36.25 25.7998 35.7666 26.083 35.6689 26.083V25.248C37.2803 24.1152 38.3447 22.9775 38.8623 21.835C39.6533 20.0967 40.0488 17.1914 40.0488 13.1191C40.0488 9.03711 39.6484 6.12207 38.8477 4.37402C38.3398 3.27051 37.2803 2.14746 35.6689 1.00488V0.169922C38.3057 1.60547 40.2881 3.52441 41.6162 5.92676C42.8369 8.13379 43.4473 10.624 43.4473 13.3975Z" fill="black"/>
</svg>
