<!-- Generated by IcoMoon.io -->
<svg version="1.1" xmlns="http://www.w3.org/2000/svg" width="32" height="32" viewBox="0 0 32 32">
<title>question-circle</title>
<path d="M31.5 16c0 8.562-6.94 15.5-15.5 15.5s-15.5-6.938-15.5-15.5c0-8.557 6.94-15.5 15.5-15.5s15.5 6.943 15.5 15.5zM16.416 5.625c-3.406 0-5.578 1.435-7.284 3.985-0.221 0.33-0.147 0.776 0.17 1.016l2.169 1.644c0.325 0.247 0.789 0.188 1.042-0.133 1.117-1.416 1.882-2.237 3.581-2.237 1.277 0 2.856 0.822 2.856 2.060 0 0.936-0.773 1.417-2.033 2.123-1.47 0.824-3.416 1.85-3.416 4.416v0.25c0 0.414 0.336 0.75 0.75 0.75h3.5c0.414 0 0.75-0.336 0.75-0.75v-0.083c0-1.779 5.199-1.853 5.199-6.667 0-3.625-3.76-6.375-7.283-6.375zM16 21.125c-1.585 0-2.875 1.29-2.875 2.875s1.29 2.875 2.875 2.875 2.875-1.29 2.875-2.875c0-1.585-1.29-2.875-2.875-2.875z"></path>
</svg>
