<!-- Generated by IcoMoon.io -->
<svg version="1.1" xmlns="http://www.w3.org/2000/svg" width="32" height="32" viewBox="0 0 32 32">
<title>save</title>
<path d="M3.421 0h17.912c1.652 0 3.237 0.655 4.406 1.822l4.428 4.417c1.173 1.17 1.833 2.76 1.833 4.417v17.923c0 1.89-1.532 3.421-3.421 3.421h-25.157c-1.89 0-3.421-1.532-3.421-3.421v-25.157c0-1.89 1.532-3.421 3.421-3.421zM6.038 4.629c-0.778 0-1.409 0.631-1.409 1.409v6.239c0 0.778 0.631 1.409 1.409 1.409h15.497c0.778 0 1.409-0.631 1.409-1.409v-6.239c0-0.778-0.631-1.409-1.409-1.409h-15.497zM16 27.371c2.501 0 4.528-2.027 4.528-4.528s-2.027-4.528-4.528-4.528c-2.501 0-4.528 2.027-4.528 4.528s2.027 4.528 4.528 4.528z"></path>
</svg>
